<?xml version="1.0" encoding="utf-8"?>
<!-- Generator: Adobe Illustrator 22.1.0, SVG Export Plug-In . SVG Version: 6.00 Build 0)  -->
<svg version="1.1" id="图层_1" xmlns="http://www.w3.org/2000/svg" xmlns:xlink="http://www.w3.org/1999/xlink" x="0px" y="0px"
	 viewBox="0 0 200 1200" style="enable-background:new 0 0 200 1200;" xml:space="preserve">
<style type="text/css">
	.st0{fill:none;stroke:#FFFFFF;stroke-width:8;stroke-linecap:round;stroke-linejoin:round;stroke-miterlimit:10;}
	.st1{fill:none;stroke:#FFFFFF;stroke-width:8;stroke-linecap:round;stroke-linejoin:round;}
	.st2{fill:#FFFFFF;}
</style>
<path class="st0" d="M34.5,80c0,8.3,20.1,15,45,15c2,0,4.1,0,6-0.1 M34.5,110c0,8.1,18.9,14.6,42.8,15c0.7,0,1.5,0,2.2,0 M124.5,75
	V50c0-8.3-20.1-15-45-15s-45,6.7-45,15v90c0,8.3,20.1,15,45,15c4.7,0,9.3-0.2,13.5-0.7 M124.5,50c0,8.3-20.1,15-45,15 M79.5,65
	c-24.9,0-45-6.7-45-15"/>
<circle class="st0" cx="124.5" cy="120" r="45"/>
<g>
	<g>
		<g>
			<path class="st1" d="M149.5,120c0,13.7-11.3,25-25,25c-4,0-7.8-0.9-11.2-2.7"/>
			<g>
				<polygon class="st2" points="122.4,136.2 102.8,132.5 109.5,151.3 				"/>
			</g>
		</g>
	</g>
	<g>
		<g>
			<path class="st1" d="M99.5,120c0-13.7,11.3-25,25-25c4,0,7.8,0.9,11.2,2.7"/>
			<g>
				<polygon class="st2" points="126.6,103.8 146.2,107.5 139.5,88.7 				"/>
			</g>
		</g>
	</g>
</g>
<circle class="st0" cx="124.5" cy="320" r="45"/>
<g>
	<g>
		<g>
			<path class="st1" d="M149.5,320c0,11.3-7.6,20.9-18,24"/>
			<g>
				<path class="st2" d="M130.7,336.4c-4.1,0.6-6.9,4.5-6.3,8.6s4.5,6.9,8.6,6.3s6.9-4.5,6.3-8.6
					C138.7,338.6,134.9,335.8,130.7,336.4z"/>
			</g>
		</g>
	</g>
	<g>
		<g>
			<path class="st1" d="M112,298.3c9.8-5.6,21.9-3.9,29.8,3.6"/>
			<g>
				<path class="st2" d="M135.6,306.3c2.6,3.2,7.3,3.8,10.6,1.2c3.2-2.6,3.8-7.3,1.2-10.6c-2.6-3.2-7.3-3.8-10.6-1.2
					S133,303.1,135.6,306.3z"/>
			</g>
		</g>
	</g>
	<g>
		<g>
			<path class="st1" d="M112,341.6c-9.8-5.6-14.3-17.1-11.8-27.6"/>
			<g>
				<path class="st2" d="M107.1,317.2c1.5-3.9-0.4-8.2-4.3-9.7s-8.2,0.4-9.7,4.3s0.4,8.2,4.3,9.7C101.2,323,105.6,321,107.1,317.2z"
					/>
			</g>
		</g>
	</g>
</g>
<circle class="st0" cx="124.5" cy="520" r="45"/>
<polyline class="st0" points="149.2,508.9 121,537.1 99.8,515.9 "/>
<g>
	<path class="st0" d="M110,760H60c-11.1,0-20-9-20-20v-80c0-11.1,9-20,20-20h80c11.1,0,20,9,20,20v50"/>
	<circle class="st0" cx="100" cy="700" r="42"/>
	<polyline class="st0" points="122.2,736.4 151.5,765.6 165.6,751.5 136.4,722.2 	"/>
	<circle class="st0" cx="100" cy="700" r="25"/>
</g>
<path class="st0" d="M160,870"/>
<path class="st0" d="M120,960H60c-11.1,0-20-9-20-20v-80c0-11.1,9-20,20-20c0,0,80,0,80,0c11,0,20,8.9,20,20v40"/>
<g>
	<circle class="st0" cx="121.6" cy="915.9" r="25"/>
	<polyline class="st0" points="135.4,936.7 158.6,960 165.6,953 142.4,929.7 	"/>
</g>
<g>
	<g>
		<g>
			<path class="st1" d="M90,1060h39.9c5.6,0,10.1,4.5,10.1,10.1v22.6"/>
			<g>
				<polygon class="st2" points="128,1089.3 140,1110 152,1089.3 				"/>
			</g>
		</g>
	</g>
	<g>
		<g>
			<path class="st1" d="M110,1140H70.1c-5.6,0-10.1-4.5-10.1-10.1v-22.6"/>
			<g>
				<polygon class="st2" points="72,1110.7 60,1090 48,1110.7 				"/>
			</g>
		</g>
	</g>
</g>
<path class="st0" d="M149.9,1160H120c-5.6,0-10.1-4.5-10.1-10.1V1120c0-5.6,4.5-10.1,10.1-10.1h29.9c5.6,0,10.1,4.5,10.1,10.1v29.9
	C160,1155.5,155.5,1160,149.9,1160z"/>
<path class="st0" d="M79.8,1090H50.2c-5.6,0-10.2-4.6-10.2-10.2v-29.6c0-5.6,4.6-10.2,10.2-10.2h29.6c5.6,0,10.2,4.6,10.2,10.2v29.6
	C90,1085.4,85.4,1090,79.8,1090z"/>
<path class="st0" d="M65,1077.5L65,1077.5c-6.9,0-12.5-5.6-12.5-12.5l0,0c0-6.9,5.6-12.5,12.5-12.5l0,0c6.9,0,12.5,5.6,12.5,12.5
	l0,0C77.5,1071.9,71.9,1077.5,65,1077.5z"/>
<g>
	<line class="st0" x1="122.5" y1="1135" x2="147.5" y2="1135"/>
	<line class="st0" x1="135" y1="1147.5" x2="135" y2="1122.5"/>
</g>
<line class="st0" x1="40" y1="930" x2="75" y2="930"/>
<line class="st0" x1="160" y1="870" x2="40" y2="870"/>
<line class="st0" x1="40" y1="900" x2="75" y2="900"/>
<path class="st0" d="M34.5,280c0,8.3,20.1,15,45,15c2,0,4.1,0,6-0.1 M34.5,310c0,8.1,18.9,14.6,42.8,15c0.7,0,1.5,0,2.2,0
	 M124.5,275v-25c0-8.3-20.1-15-45-15s-45,6.7-45,15v90c0,8.3,20.1,15,45,15c4.7,0,9.3-0.2,13.5-0.7 M124.5,250c0,8.3-20.1,15-45,15
	 M79.5,265c-24.9,0-45-6.7-45-15"/>
<path class="st0" d="M34.5,480c0,8.3,20.1,15,45,15c2,0,4.1,0,6-0.1 M34.5,510c0,8.1,18.9,14.6,42.8,15c0.7,0,1.5,0,2.2,0
	 M124.5,475v-25c0-8.3-20.1-15-45-15s-45,6.7-45,15v90c0,8.3,20.1,15,45,15c4.7,0,9.3-0.2,13.5-0.7 M124.5,450c0,8.3-20.1,15-45,15
	 M79.5,465c-24.9,0-45-6.7-45-15"/>
</svg>
